<svg width="24" height="27" viewBox="0 0 24 27" fill="none" xmlns="http://www.w3.org/2000/svg">
<path d="M1 25.8841C1.00016 25.9068 1.0074 25.9289 1.02084 25.9477C1.03428 25.9666 1.05332 25.9813 1.07562 25.9901C1.09791 25.999 1.12249 26.0015 1.1463 25.9974C1.17012 25.9933 1.19213 25.9828 1.20962 25.9671L3.91738 23.527C6.32778 21.3539 8.73852 19.181 11.1496 17.0085C11.4617 16.7275 11.5464 16.7299 11.8637 17.0176L21.7914 25.9681C21.8089 25.9837 21.8309 25.9942 21.8548 25.9982C21.8786 26.0022 21.9031 25.9995 21.9254 25.9906C21.9476 25.9816 21.9665 25.9668 21.9798 25.9479C21.9931 25.9289 22.0001 25.9068 22 25.8841V4.17814C21.9999 3.3352 21.6418 2.52683 21.0045 1.93082C20.3672 1.33482 19.5029 1 18.6017 1H4.39528C3.49465 1.00063 2.63113 1.33568 1.99448 1.93153C1.35783 2.52737 1.00014 3.33526 1 4.17766V25.8841Z" stroke="#8D8D8E" stroke-width="1.7" stroke-miterlimit="10"/>
</svg>
